<svg width="16" height="18"  viewBox="0 0 16 18" fill="none" xmlns="http://www.w3.org/2000/svg"><path d="M5.333 17A2.668 2.668 0 0 0 8 14.334v-2.667H5.333a2.668 2.668 0 0 0 0 5.333zM2.667 9a2.668 2.668 0 0 1 2.666-2.666H8v5.333H5.333a2.668 2.668 0 0 1-2.666-2.666zM2.667 3.667A2.668 2.668 0 0 1 5.333 1H8v5.333H5.333a2.668 2.668 0 0 1-2.666-2.666zM8 1h2.666a2.668 2.668 0 0 1 0 5.333H8V1z" stroke="#c9d1d9"/><path d="M13.333 9A2.668 2.668 0 0 1 8 9a2.668 2.668 0 0 1 5.333 0z" stroke="#c9d1d9"/></svg>