<svg width="151" height="32" fill="none" xmlns="http://www.w3.org/2000/svg"><g clip-path="url(#a)"><path d="M98.563 6.665c.306.301.681.452 1.124.452.426 0 .784-.15 1.073-.452.307-.302.46-.67.46-1.106a1.49 1.49 0 0 0-.46-1.107A1.427 1.427 0 0 0 99.687 4c-.443 0-.817.15-1.124.452-.307.302-.46.67-.46 1.107 0 .435.153.804.46 1.106zM106.87 19.067v-7.756h3.895V9.547h-3.895v-3.35c-.422 0-.632 0-.807.036a1.732 1.732 0 0 0-1.342 1.342c-.036.175-.036.385-.036.807v1.165h-1.501v1.764h1.501v7.756c0 2.339 1.095 3.602 3.65 3.602h2.43v-1.964h-2.301c-1.201 0-1.594-.412-1.594-1.637zM100.71 9.543v13.16h-2.185V9.542h2.185zM94.047 9.543l-4.082 10.68-4.106-10.68h-2.353l5.162 13.16h2.546l5.162-13.16h-2.329zM40 14.357a8.485 8.485 0 0 1 16.122-3.699h-2.607a6.245 6.245 0 0 0-5.03-2.548 6.254 6.254 0 0 0-6.247 6.248 6.254 6.254 0 0 0 6.247 6.247c3.03 0 5.56-2.168 6.128-5.032l.019-.097H48v-1.811h8.941a8.485 8.485 0 0 1-8.456 9.178A8.485 8.485 0 0 1 40 14.357zM129.564 5.967v10.072c0 2.208.653 3.951 1.854 5.143 1.195 1.187 2.804 1.698 4.466 1.698 1.664 0 3.28-.513 4.479-1.738 1.198-1.227 1.842-3.027 1.842-5.333V5.967h-2.193v9.61c0 2.704-.866 5.11-4.128 5.11-3.261 0-4.127-2.216-4.127-4.878V5.967h-2.193zM148.015 5.967v16.74h-2.194V5.966h2.194zM111.843 9.544l5.897 12.479L115.029 28h.194c1.089 0 1.634 0 2.063-.278.43-.279.653-.776 1.098-1.77l7.349-16.408h-2.404l-4.408 9.843-4.652-9.843h-2.426z" fill="#fff"/><path fill-rule="evenodd" clip-rule="evenodd" d="M74.552 9.311a6.811 6.811 0 1 0 0 13.623c2.042 0 3.633-.8 4.699-2.087v1.856h2.194V9.542H79.25v1.856c-1.066-1.287-2.657-2.087-4.699-2.087zm-4.69 6.811a4.69 4.69 0 1 1 9.38 0 4.69 4.69 0 0 1-9.38 0z" fill="#fff"/><path d="M66.702 9.428c-2.043 0-3.752.23-4.857 1.906v-1.79h-2.186v13.158h2.186l.03-7.146c0-2.658 1.224-4.102 3.673-4.102h1.154V9.428z" fill="#fff"/><path fill-rule="evenodd" clip-rule="evenodd" d="M26.46 26.46c6.07-6.072 6.07-15.916 0-21.987l-4.367 4.366c3.568 3.704 3.553 9.572-.065 13.19-3.618 3.619-9.486 3.634-13.19.066l-4.365 4.364c6.071 6.072 15.915 6.072 21.986 0z" fill="url(#b)"/><mask id="c" style="mask-type:alpha" maskUnits="userSpaceOnUse" x="0" y="0" width="33" height="32"><path fill-rule="evenodd" clip-rule="evenodd" d="M4.554 4.554C-.74 9.847-1.418 18.009 2.52 24.037c.28.446.42.668.5.876.187.481.214.879.093 1.38-.052.218-.185.51-.45 1.094-.888 1.95-1.08 3.4-.406 4.075 1.903 1.903 7.997-1.106 18.049-11.158C30.358 10.253 33.366 4.16 31.463 2.256c-.674-.675-2.124-.483-4.074.405-.587.267-.88.4-1.098.452-.5.12-.895.093-1.374-.091-.207-.08-.427-.218-.864-.492-6.03-3.95-14.201-3.275-19.5 2.024zm12.879 12.878c3.66-3.662 6.13-7.129 4.431-8.827-3.695-3.696-9.66-3.724-13.32-.063-3.662 3.662-3.634 9.626.062 13.321 1.698 1.699 5.165-.77 8.827-4.431z" fill="#F37"/></mask><g mask="url(#c)"><path fill-rule="evenodd" clip-rule="evenodd" d="M4.554 4.554C-.74 9.847-1.418 18.009 2.52 24.037c.28.446.42.668.5.876.187.481.214.879.093 1.38-.052.218-.185.51-.45 1.094-.888 1.95-1.08 3.4-.406 4.075 1.903 1.903 7.997-1.106 18.049-11.158C30.358 10.253 33.366 4.16 31.463 2.256c-.674-.675-2.124-.483-4.074.405-.587.267-.88.4-1.098.452-.5.12-.895.093-1.374-.091-.207-.08-.427-.218-.864-.492-6.03-3.95-14.201-3.275-19.5 2.024zm12.879 12.878c3.66-3.662 6.13-7.129 4.431-8.827-3.695-3.696-9.66-3.724-13.32-.063-3.662 3.662-3.634 9.626.062 13.321 1.698 1.699 5.165-.77 8.827-4.431z" fill="#F37"/><g filter="url(#d)"><path d="M4.885 22.594C1.65 17.634 2.206 10.92 6.557 6.564 10.912 2.202 17.63 1.647 22.586 4.9c.357.224.537.337.707.403a1.75 1.75 0 0 0 1.128.075c.18-.043.42-.153.903-.372 1.603-.73 3.85-2.299 4.64-1.51 1.212 1.214-2.435 7.521-10.696 15.792-8.261 8.27-14.561 12.156-15.773 10.943-.789-.79.778-3.276 1.507-4.88.219-.481.328-.722.371-.9.099-.413.077-.74-.077-1.136-.066-.172-.181-.354-.411-.72z" fill="#FF0"/></g></g></g><defs><radialGradient id="b" cx="0" cy="0" r="1" gradientUnits="userSpaceOnUse" gradientTransform="rotate(45 -11.194 26.46) scale(15.3414)"><stop offset=".646" stop-color="#FF0"/><stop offset="1" stop-color="#F37"/></radialGradient><clipPath id="a"><path fill="#fff" d="M0 0h149v32H0z"/></clipPath><filter id="d" x="-2.068" y="-2.066" width="37.142" height="37.398" filterUnits="userSpaceOnUse" color-interpolation-filters="sRGB"><feFlood flood-opacity="0" result="BackgroundImageFix"/><feBlend in="SourceGraphic" in2="BackgroundImageFix" result="shape"/><feGaussianBlur stdDeviation="2.441" result="effect1_foregroundBlur_977_118400"/></filter></defs></svg>