<svg width="15" height="16" viewBox="0 0 15 16" fill="none" xmlns="http://www.w3.org/2000/svg">
<path fill-rule="evenodd" clip-rule="evenodd" d="M0.000598425 1.53603L0.579906 14.744V14.7432C0.58881 14.945 0.685981 15.1365 0.852138 15.2798C1.0183 15.4231 1.2413 15.5077 1.4769 15.5168L14.018 15.9992C14.1448 16.0041 14.2714 15.9869 14.3902 15.9487C14.509 15.9106 14.6176 15.8522 14.7093 15.7771C14.8011 15.7021 14.8741 15.6119 14.9241 15.512C14.9741 15.4122 14.9999 15.3046 15 15.196V0.80483C15.0001 0.694865 14.9739 0.586045 14.923 0.4851C14.872 0.384155 14.7974 0.29323 14.7038 0.217948C14.6102 0.142666 14.4995 0.0846267 14.3787 0.0474198C14.2578 0.010213 14.1293 -0.00537084 14.0012 0.00163199L12.9669 0.0570109L13.0416 1.90304C13.0426 1.92594 13.0358 1.9486 13.0222 1.96834C13.0086 1.98807 12.9887 2.00406 12.9648 2.01441C12.9409 2.02476 12.9141 2.02904 12.8875 2.02674C12.8608 2.02444 12.8355 2.01566 12.8145 2.00144L12.1194 1.53264L11.2971 2.06704C11.2759 2.08068 11.2506 2.08889 11.2242 2.09072C11.1978 2.09255 11.1713 2.08791 11.1478 2.07736C11.1243 2.0668 11.1048 2.05076 11.0915 2.03109C11.0783 2.01141 11.0718 1.98893 11.0729 1.96624L11.1607 0.153719L0.882641 0.70403C0.63793 0.716834 0.408745 0.810991 0.243966 0.966421C0.079187 1.12185 -0.00814405 1.32625 0.000598425 1.53603ZM8.7678 6.18543C8.7678 6.49822 11.2308 6.34863 11.5606 6.12863C11.5606 3.99743 10.2254 2.87743 7.77924 2.87743C5.33307 2.87743 3.96328 4.01503 3.96328 5.72063C3.96328 7.43022 5.51247 8.17502 6.82899 8.80782C7.80167 9.27502 8.64633 9.68142 8.64633 10.3702C8.64633 10.8246 8.38658 11.095 7.81381 11.095C7.06819 11.095 6.77293 10.7686 6.80843 9.65982C6.80843 9.41982 3.96328 9.34462 3.87639 9.65982C3.65588 12.347 5.61151 13.1222 7.84932 13.1222C10.0171 13.1222 11.7176 12.1334 11.7176 10.3414C11.7176 8.47278 10.0799 7.72955 8.72797 7.11598L8.72762 7.11582C7.7755 6.68382 6.96447 6.31582 6.96447 5.66383C6.96447 5.02383 7.51949 4.93903 7.84838 4.93903C8.19597 4.93903 8.82013 4.99103 8.7678 6.18543Z" fill="currentColor"/>
</svg>
