<svg width="17" height="16" viewBox="0 0 17 16" fill="none" xmlns="http://www.w3.org/2000/svg">
<path fill-rule="evenodd" clip-rule="evenodd" d="M16.5 8C16.5 12.4183 12.9183 16 8.5 16C4.08172 16 0.5 12.4183 0.5 8C0.5 3.58172 4.08172 0 8.5 0C12.9183 0 16.5 3.58172 16.5 8ZM3.97975 8.04231L5.93215 8.67845C5.96505 8.68417 5.99884 8.68212 6.03081 8.67245L6.03217 8.67159C6.48309 8.38684 10.4993 5.85063 10.7312 5.76531C10.7677 5.75425 10.7949 5.76671 10.7877 5.79198C10.6947 6.11811 7.19968 9.22478 7.19968 9.22478C7.19968 9.22478 7.16568 9.26351 7.17188 9.29478C7.17331 9.3068 7.17729 9.31838 7.18357 9.32873C7.18985 9.33908 7.19828 9.34796 7.20828 9.35478C7.65181 9.65145 9.65901 11.0004 10.2397 11.4999C10.292 11.5506 10.3538 11.5902 10.4217 11.6165C10.4896 11.6427 10.562 11.6551 10.6347 11.6527C10.9307 11.6416 11.0133 11.3165 11.0133 11.3165C11.0133 11.3165 12.3938 5.76131 12.4399 5.01698C12.4417 4.98877 12.4437 4.96451 12.4455 4.94247C12.4484 4.90758 12.4508 4.87823 12.4512 4.84751C12.4536 4.78956 12.4479 4.73156 12.4343 4.67518C12.4273 4.64326 12.4121 4.61376 12.39 4.58968C12.3679 4.56561 12.3398 4.54784 12.3086 4.53818C12.1825 4.49025 11.9686 4.56231 11.9686 4.56231C11.9686 4.56231 4.39415 7.28478 3.96155 7.58631C3.86821 7.65105 3.83701 7.68871 3.82155 7.73298C3.74641 7.94765 3.97975 8.04231 3.97975 8.04231Z" fill="currentColor"/>
</svg>
